{"title":"The Pentagon Papers[x264][AC3]Multi_Audio-Muliti_Sub.mkv","uid":5242035,"size":1908945328,"categoryP":"video","categoryS":"movies","magnet":"?xt=urn:btih:167c4d71cb959cdd968dd929ac3e2511182a9ed1&amp;dn=The+Pentagon+Papers%5Bx264%5D%5BAC3%5DMulti_Audio-Muliti_Sub.mkv&amp;tr=udp%3A%2F%2Ftracker.openbittorrent.com%3A80&amp;tr=udp%3A%2F%2Fopen.demonii.com%3A1337&amp;tr=udp%3A%2F%2Ftracker.coppersurfer.tk%3A6969&amp;tr=udp%3A%2F%2Fexodus.desync.com%3A6969","seeders":0,"leechers":8,"uploader":"Zen_Bud","files":-1,"time":1261815128,"description":"General\nComplete name                    : The Pentagon Papers.mkv\nFormat                           : Matroska\nFile size                        : 1.78 GiB\nDuration                         : 1h 27mn\nOverall bit rate                 : 2 894 Kbps\n\n\nVideo\nID                               : 1\nFormat                           : AVC\nCodec ID                         : V_MPEG4/ISO/AVC\nDuration                         : 1h 27mn\nBit rate                         : 2 261 Kbps\nNominal bit rate                 : 2 279 Kbps\nWidth                            : 702 pixels\nHeight                           : 572 pixels\nDisplay aspect ratio             : 4:3\nOriginal display aspect ratio    : 4:3\nFrame rate                       : 25.000 fps\nResolution                       : 8 bits\nColorimetry                      : 4:2:0\nScan type                        : Progressive\nBits/(Pixel*Frame)               : 0.225\nStream size                      : 1.39 GiB (78%)\nWriting library                  : x264 core 79\n\n\nAudio #1\nID                               : 2\nFormat                           : AC-3\nFormat/Info                      : Audio Coding 3\nFormat profile                   : Dolby Digital\nCodec ID                         : A_AC3\nDuration                         : 1h 27mn\nBit rate mode                    : Constant\nBit rate                         : 192 Kbps\nChannel(s)                       : 2 channels\nChannel positions                : L R\nSampling rate                    : 48.0 KHz\nStream size                      : 121 MiB (7%)\nLanguage                         : English\n\nAudio #2\nID                               : 3\nFormat                           : AC-3\nFormat/Info                      : Audio Coding 3\nFormat profile                   : Dolby Digital\nCodec ID                         : A_AC3\nDuration                         : 1h 27mn\nBit rate mode                    : Constant\nBit rate                         : 192 Kbps\nChannel(s)                       : 2 channels\nChannel positions                : L R\nSampling rate                    : 48.0 KHz\nStream size                      : 121 MiB (7%)\nLanguage                         : Spanish\n\nAudio #3\nID                               : 4\nFormat                           : AC-3\nFormat/Info                      : Audio Coding 3\nFormat profile                   : Dolby Digital\nCodec ID                         : A_AC3\nDuration                         : 1h 27mn\nBit rate mode                    : Constant\nBit rate                         : 192 Kbps\nChannel(s)                       : 2 channels\nChannel positions                : L R\nSampling rate                    : 48.0 KHz\nStream size                      : 121 MiB (7%)\nLanguage                         : Italian\n\nText #1\nLanguage                         : Danish\n\nText #2\nLanguage                         : Dutch\n\nText #3\nLanguage                         : Norwegian\n\nText #4\nLanguage                         : Portuguese\n\nText #5\nLanguage                         : Swedish\n\n\n\n","torrent":{"xt":"urn:btih:167c4d71cb959cdd968dd929ac3e2511182a9ed1","amp;dn":"The+Pentagon+Papers%5Bx264%5D%5BAC3%5DMulti_Audio-Muliti_Sub.mkv","amp;tr":["udp%3A%2F%2Ftracker.openbittorrent.com%3A80","udp%3A%2F%2Fopen.demonii.com%3A1337","udp%3A%2F%2Ftracker.coppersurfer.tk%3A6969","udp%3A%2F%2Fexodus.desync.com%3A6969"],"infoHash":"167c4d71cb959cdd968dd929ac3e2511182a9ed1","infoHashBuffer":{"type":"Buffer","data":[22,124,77,113,203,149,156,221,150,141,217,41,172,62,37,17,24,42,158,209]},"announce":[],"urlList":[]}}